<?xml version="1.0" encoding="UTF-8" standalone="no"?>
<!DOCTYPE svg PUBLIC "-//W3C//DTD SVG 1.1//EN" "http://www.w3.org/Graphics/SVG/1.1/DTD/svg11.dtd">
<svg width="100%" height="100%" viewBox="0 0 1000 1000" version="1.1" xmlns="http://www.w3.org/2000/svg" xmlns:xlink="http://www.w3.org/1999/xlink" xml:space="preserve" xmlns:serif="http://www.serif.com/" style="fill-rule:evenodd;clip-rule:evenodd;stroke-linejoin:round;stroke-miterlimit:2;">
    <rect id="aws_aws" x="0" y="0" width="1000" height="1000" style="fill:none;"/>
    <g id="aws_aws1" serif:id="aws_aws">
        <g transform="matrix(0.84375,0,0,0.84375,500,500)">
            <g transform="matrix(1,0,0,1,-533.333333,-318.75)">
                <g transform="matrix(4.166667,0,0,4.166667,0,0)">
                    <path d="M72.392,55.438C72.392,58.575 72.731,61.118 73.325,62.983C74.003,64.848 74.85,66.882 76.037,69.086C76.461,69.764 76.63,70.442 76.63,71.036C76.63,71.883 76.122,72.731 75.02,73.579L69.679,77.139C68.917,77.648 68.154,77.902 67.475,77.902C66.628,77.902 65.78,77.478 64.932,76.715C63.746,75.444 62.728,74.087 61.881,72.731C61.033,71.29 60.185,69.679 59.253,67.73C52.641,75.528 44.334,79.428 34.331,79.428C27.211,79.428 21.531,77.393 17.377,73.325C13.224,69.256 11.105,63.83 11.105,57.049C11.105,49.844 13.648,43.995 18.819,39.587C23.989,35.179 30.856,32.975 39.587,32.975C42.469,32.975 45.436,33.229 48.572,33.653C51.709,34.077 54.93,34.755 58.321,35.518L58.321,29.33C58.321,22.887 56.964,18.395 54.336,15.767C51.624,13.139 47.046,11.868 40.519,11.868C37.552,11.868 34.501,12.207 31.364,12.97C28.228,13.732 25.176,14.665 22.209,15.852C20.853,16.445 19.836,16.784 19.242,16.954C18.649,17.123 18.225,17.208 17.886,17.208C16.699,17.208 16.106,16.36 16.106,14.58L16.106,10.426C16.106,9.07 16.275,8.053 16.699,7.46C17.123,6.866 17.886,6.273 19.073,5.679C22.04,4.154 25.6,2.882 29.754,1.865C33.907,0.763 38.315,0.254 42.977,0.254C53.065,0.254 60.44,2.543 65.187,7.121C69.849,11.698 72.223,18.649 72.223,27.974L72.223,55.438L72.392,55.438ZM37.976,68.323C40.774,68.323 43.656,67.815 46.707,66.797C49.759,65.78 52.472,63.915 54.76,61.372C56.117,59.762 57.134,57.981 57.642,55.947C58.151,53.913 58.49,51.454 58.49,48.572L58.49,45.012C56.032,44.419 53.404,43.91 50.691,43.571C47.979,43.232 45.351,43.062 42.723,43.062C37.044,43.062 32.89,44.164 30.093,46.453C27.295,48.742 25.939,51.963 25.939,56.201C25.939,60.185 26.956,63.152 29.075,65.187C31.11,67.306 34.077,68.323 37.976,68.323ZM106.045,77.478C104.519,77.478 103.502,77.224 102.824,76.63C102.146,76.122 101.552,74.935 101.044,73.325L81.123,7.799C80.615,6.103 80.36,5.001 80.36,4.408C80.36,3.052 81.038,2.289 82.395,2.289L90.702,2.289C92.313,2.289 93.415,2.543 94.008,3.136C94.686,3.645 95.195,4.832 95.703,6.442L109.944,62.559L123.168,6.442C123.592,4.747 124.101,3.645 124.779,3.136C125.457,2.628 126.644,2.289 128.17,2.289L134.951,2.289C136.562,2.289 137.664,2.543 138.342,3.136C139.02,3.645 139.613,4.832 139.952,6.442L153.346,63.237L168.011,6.442C168.519,4.747 169.113,3.645 169.706,3.136C170.384,2.628 171.486,2.289 173.012,2.289L180.895,2.289C182.252,2.289 183.015,2.967 183.015,4.408C183.015,4.832 182.93,5.256 182.845,5.764C182.76,6.273 182.591,6.951 182.252,7.883L161.823,73.409C161.314,75.105 160.721,76.207 160.042,76.715C159.364,77.224 158.262,77.563 156.821,77.563L149.531,77.563C147.921,77.563 146.819,77.309 146.14,76.715C145.462,76.122 144.869,75.02 144.53,73.325L131.391,18.649L118.336,73.24C117.913,74.935 117.404,76.037 116.726,76.63C116.048,77.224 114.861,77.478 113.335,77.478L106.045,77.478ZM214.972,79.767C210.564,79.767 206.156,79.258 201.918,78.241C197.679,77.224 194.374,76.122 192.17,74.85C190.813,74.087 189.881,73.24 189.542,72.477C189.203,71.714 189.033,70.866 189.033,70.103L189.033,65.78C189.033,64 189.711,63.152 190.983,63.152C191.491,63.152 192,63.237 192.509,63.407C193.017,63.576 193.78,63.915 194.628,64.254C197.51,65.526 200.646,66.543 203.952,67.221C207.343,67.899 210.649,68.238 214.04,68.238C219.38,68.238 223.534,67.306 226.416,65.441C229.298,63.576 230.824,60.864 230.824,57.388C230.824,55.015 230.061,53.065 228.535,51.454C227.009,49.844 224.127,48.403 219.974,47.046L207.682,43.232C201.494,41.282 196.917,38.4 194.119,34.585C191.322,30.856 189.881,26.702 189.881,22.294C189.881,18.734 190.644,15.597 192.17,12.885C193.695,10.172 195.73,7.799 198.273,5.934C200.816,3.984 203.698,2.543 207.089,1.526C210.479,0.509 214.04,0.085 217.77,0.085C219.634,0.085 221.584,0.17 223.449,0.424C225.399,0.678 227.179,1.017 228.959,1.356C230.654,1.78 232.265,2.204 233.791,2.713C235.317,3.221 236.503,3.73 237.351,4.238C238.538,4.917 239.385,5.595 239.894,6.358C240.403,7.036 240.657,7.968 240.657,9.155L240.657,13.139C240.657,14.919 239.979,15.852 238.707,15.852C238.029,15.852 236.927,15.513 235.486,14.834C230.654,12.63 225.229,11.528 219.211,11.528C214.379,11.528 210.564,12.291 207.936,13.902C205.309,15.513 203.952,17.971 203.952,21.446C203.952,23.82 204.8,25.854 206.495,27.465C208.191,29.075 211.327,30.686 215.82,32.127L227.857,35.942C233.96,37.891 238.368,40.604 240.996,44.079C243.624,47.555 244.895,51.539 244.895,55.947C244.895,59.592 244.132,62.898 242.691,65.78C241.166,68.662 239.131,71.205 236.503,73.24C233.875,75.359 230.739,76.885 227.094,77.987C223.279,79.174 219.295,79.767 214.972,79.767Z" style="fill:rgb(37,47,62);fill-rule:nonzero;"/>
                    <path d="M230.993,120.964C203.105,141.563 162.585,152.498 127.746,152.498C78.919,152.498 34.925,134.442 1.695,104.434C-0.932,102.061 1.441,98.84 4.577,100.705C40.519,121.558 84.853,134.188 130.713,134.188C161.653,134.188 195.645,127.746 226.925,114.522C231.587,112.403 235.571,117.574 230.993,120.964ZM242.607,107.74C239.046,103.163 219.041,105.536 209.971,106.638C207.258,106.977 206.834,104.604 209.293,102.824C225.229,91.634 251.423,94.856 254.474,98.585C257.526,102.4 253.626,128.593 238.707,141.139C236.419,143.089 234.215,142.072 235.232,139.528C238.623,131.136 246.167,112.233 242.607,107.74Z" style="fill:rgb(255,153,0);fill-rule:nonzero;"/>
                </g>
            </g>
        </g>
    </g>
</svg>
